<svg xmlns="http://www.w3.org/2000/svg" width="119.76" height="110.88" viewBox="0 0 119.76 110.88">
  <g id="Group_1" data-name="Group 1" transform="translate(-3065.56 -485.4)">
    <path id="Path_7" data-name="Path 7" d="M351,272.28,303.12,157.32a32.483,32.483,0,0,0-4.92,3.36l46.56,111.6Z" transform="translate(3337.84 243.24) rotate(90)" fill="#ff772a"/>
    <path id="Path_8" data-name="Path 8" d="M353.04,193.8v-7.56a33.139,33.139,0,0,0-14.64-27.6Z" transform="translate(3337.84 243.24) rotate(90)" fill="#ff772a"/>
    <path id="Path_9" data-name="Path 9" d="M306.48,155.64l46.56,111.84v-15l-41.16-98.64a35.619,35.619,0,0,0-5.4,1.8" transform="translate(3337.84 243.24) rotate(90)" fill="#ff772a"/>
    <path id="Path_10" data-name="Path 10" d="M321.84,153H319.8a24.664,24.664,0,0,0-4.2.24l37.44,89.64V228Z" transform="translate(3337.84 243.24) rotate(90)" fill="#ff772a"/>
    <path id="Path_11" data-name="Path 11" d="M333.12,155.76a32.466,32.466,0,0,0-7.08-2.16l27,64.68V203.4Z" transform="translate(3337.84 243.24) rotate(90)" fill="#ff772a"/>
    <path id="Path_12" data-name="Path 12" d="M294.24,160.56a24.105,24.105,0,0,0-18-8.04,34.057,34.057,0,0,0-34.08,34.08v77.88a7.784,7.784,0,0,0,7.8,7.8H340.8Z" transform="translate(3337.84 243.24) rotate(90)" fill="#ff772a"/>
    <path id="Path_33" data-name="Path 33" d="M351,272.28h-6.24L298.2,160.68a32.483,32.483,0,0,1,4.92-3.36Z" transform="translate(3337.84 243.24) rotate(90)" fill="#f47631"/>
    <path id="Path_34" data-name="Path 34" d="M353.04,186.24v7.56L338.4,158.64a33.139,33.139,0,0,1,14.64,27.6" transform="translate(3337.84 243.24) rotate(90)" fill="#f47631"/>
    <path id="Path_35" data-name="Path 35" d="M353.04,252.48v15L306.48,155.64a35.619,35.619,0,0,1,5.4-1.8Z" transform="translate(3337.84 243.24) rotate(90)" fill="#f47631"/>
    <path id="Path_36" data-name="Path 36" d="M353.04,228v14.88L315.6,153.24a24.664,24.664,0,0,1,4.2-.24h2.04Z" transform="translate(3337.84 243.24) rotate(90)" fill="#f47631"/>
    <path id="Path_37" data-name="Path 37" d="M353.04,203.4v14.88l-27-64.68a32.466,32.466,0,0,1,7.08,2.16Z" transform="translate(3337.84 243.24) rotate(90)" fill="#f47631"/>
    <path id="Path_38" data-name="Path 38" d="M340.8,272.28H249.96a7.784,7.784,0,0,1-7.8-7.8V186.6a34.057,34.057,0,0,1,34.08-34.08,24.105,24.105,0,0,1,18,8.04Z" transform="translate(3337.84 243.24) rotate(90)" fill="#f47631"/>
  </g>
</svg>
