<?xml version="1.0" encoding="UTF-8"?>
<svg id="Camada_2" data-name="Camada 2" xmlns="http://www.w3.org/2000/svg" viewBox="0 0 1295.45 145.74">
  <g id="Camada_1-2" data-name="Camada 1">
    <g>
      <path d="M157.32,44.72C157.32,20.02,137.3,0,112.6,0H10.26C4.59,0,0,4.59,0,10.26v135.36h113.07c24.14,0,43.7-19.57,43.7-43.7,0-12.21-4.9-23.26-12.82-31.33,8.09-5.74,13.37-15.18,13.37-25.86ZM122.68,100.38c0,6.51-5.28,11.79-11.79,11.79H33.53v-23.57h77.36c6.51,0,11.79,5.28,11.79,11.79h0ZM110.89,57.19H33.53v-23.57h77.36c6.51,0,11.79,5.28,11.79,11.79s-5.28,11.79-11.79,11.79Z"/>
      <path d="M308.47,90.57c9.31-9.45,15.06-22.41,15.06-36.72,0-29.74-24.11-53.85-53.85-53.85h-70.23s-21.89,0-21.89,0c-5.66,0-10.26,4.59-10.26,10.26v135.36h35.74v-39.45h67.26c11,0,19.91,8.92,19.91,19.91h0v19.53h31.79v-29.23c0-10.7-5.36-20.14-13.53-25.81ZM201.75,72.94v-36.79h71.32c10.16,0,18.39,8.24,18.39,18.39s-8.24,18.39-18.39,18.39h-71.32Z"/>
      <path d="M455.38,30.16c-.03-.08-.07-.15-.1-.23C449.45,12.65,433.12.19,413.86.19s-35.59,12.46-41.42,29.75c-.03.08-.07.15-.1.22-14.59,38.51-29.17,77.01-43.76,115.52,12.43,0,24.85,0,37.28,0,2.86-7.39,5.72-14.78,8.58-22.17h78.84c2.86,7.39,5.72,14.78,8.58,22.17,12.43,0,24.85,0,37.28,0-14.59-38.51-29.17-77.01-43.76-115.52ZM429.9,89.77h-43.04c4.62-14.88,9.24-29.76,13.85-44.64,0-.03.02-.06.03-.09,1.85-6.68,7.02-11.49,13.11-11.49s11.27,4.81,13.11,11.49c0,.03.02.06.03.09,4.62,14.88,9.24,29.76,13.85,44.64h-10.96Z"/>
      <path d="M617.38.38h-71.66v.06c-24.22,1.18-43.49,21.18-43.49,45.69h0c0,25.26,20.48,45.74,45.74,45.74h65.83c6.39,0,11.57,5.18,11.57,11.57s-5.18,11.57-11.57,11.57h-110.47v30.66h110.73c24.64,0,44.61-19.97,44.61-44.61h0c0-23.52-18.21-42.78-41.3-44.47v-.14h-70.87c-6.39,0-11.57-5.18-11.57-11.57s5.18-11.57,11.57-11.57h113.26V.38h-42.38Z"/>
    </g>
    <g>
      <path d="M1086.78.13v92.51L1012.56,7.98c-3.86-4.4-9.02-6.94-14.41-7.6-1.85-.23-3.59-.25-5.45-.25h-11.59c-5.66,0-10.26,4.59-10.26,10.26v135.36h35.74V52.87l76.16,86.87c3.24,3.68,8.17,6,13.11,6h9.57c9.43,0,17.07-7.64,17.07-17.07V.13h-35.74Z"/>
      <polygon points="705.9 109.94 705.9 .06 670.15 .06 670.15 109.94 670.15 145.68 705.9 145.68 793.07 145.68 793.07 109.94 705.9 109.94"/>
      <path d="M922.61,30.16c-.03-.08-.07-.15-.1-.23-5.83-17.29-22.16-29.74-41.42-29.74s-35.59,12.46-41.42,29.75c-.03.08-.07.15-.1.22-14.59,38.51-29.17,77.01-43.76,115.52,12.43,0,24.85,0,37.28,0,2.86-7.39,5.72-14.78,8.58-22.17h78.84c2.86,7.39,5.72,14.78,8.58,22.17,12.43,0,24.85,0,37.28,0-14.59-38.51-29.17-77.01-43.76-115.52ZM897.14,89.77h-43.04c4.62-14.88,9.24-29.76,13.85-44.64,0-.03.02-.06.03-.09,1.85-6.68,7.02-11.49,13.11-11.49s11.27,4.81,13.11,11.49c0,.03.02.06.03.09,4.62,14.88,9.24,29.76,13.85,44.64h-10.96Z"/>
      <path d="M1222.64.06h-79.26c-5.66,0-10.26,4.59-10.26,10.26v135.36h89.51c40.21,0,72.81-32.6,72.81-72.81h0c0-40.21-32.6-72.81-72.81-72.81ZM1223.17,110.81h-55.94V34.94h55.94c20.95,0,37.94,16.98,37.94,37.94s-16.98,37.94-37.94,37.94Z"/>
    </g>
  </g>
</svg>